<?xml version="1.0" encoding="UTF-8"?>
<!DOCTYPE svg PUBLIC "-//W3C//DTD SVG 1.1//EN" "http://www.w3.org/Graphics/SVG/1.1/DTD/svg11.dtd">
<!-- Creator: CorelDRAW X7 -->
<svg xmlns="http://www.w3.org/2000/svg" xml:space="preserve" width="0.805598in" height="0.770776in" version="1.1" style="shape-rendering:geometricPrecision; text-rendering:geometricPrecision; image-rendering:optimizeQuality; fill-rule:evenodd; clip-rule:evenodd"
viewBox="0 0 115 110"
 xmlns:xlink="http://www.w3.org/1999/xlink">
 <defs>
  <style type="text/css">
   <![CDATA[
    .fil4 {fill:#FFF212}
    .fil7 {fill:#F58634}
    .fil1 {fill:#ED3237}
    .fil6 {fill:#91D8F7}
    .fil8 {fill:#00A859}
    .fil9 {fill:#3E4095}
    .fil2 {fill:#7759FF}
    .fil0 {fill:#9983FF}
    .fil11 {fill:#F47ABC}
    .fil10 {fill:#F976B9}
    .fil5 {fill:#FAFAF9}
    .fil3 {fill:#FCFCFC}
   ]]>
  </style>
 </defs>
 <g id="Layer_x0020_1">
  <metadata id="CorelCorpID_0Corel-Layer"/>
  <g id="_324921712">
   <path class="fil0" d="M43 85l-8 0 0 -8 8 0 0 0 1 0 0 7 -1 0 0 1zm6 -47l3 0 0 1 1 0 0 4 -4 0 0 -5zm-9 -8l7 0 0 8 -6 0 0 -1 -1 0 0 -7zm24 -3l6 0 0 6 -6 0 0 -6zm-52 -20l-1 0 0 9 1 0 0 1 10 0 0 1 1 0 0 0 0 0 0 1 1 0 0 1 1 0 0 1 1 0 0 0 0 0 0 1 1 0 0 1 1 0 0 0 0 0 0 1 1 0 0 1 1 0 0 1 0 0 0 0 1 0 0 1 1 0 0 1 1 0 0 10 0 0 0 0 7 0 0 1 0 0 0 6 4 0 0 7 -6 0 0 -3 -1 0 0 -1 -17 0 0 -1 -1 0 0 0 -1 0 0 -8 -8 0 0 7 1 0 0 1 7 0 0 0 0 0 0 1 1 0 0 1 1 0 0 12 1 0 0 1 15 0 0 0 2 0 0 1 0 0 0 1 1 0 0 1 1 0 0 6 -1 0 0 1 -1 0 0 1 0 0 0 1 -2 0 0 0 -13 0 0 1 -1 0 0 1 -1 0 0 14 1 0 0 1 1 0 0 0 12 0c9,26 69,27 76,-10l-17 0c-21,29 -48,9 -49,-10 -5,-32 41,-45 49,-14l-39 0c0,26 25,11 60,17 0,-57 -41,-40 -41,-56l-1 0 0 -1 -9 0 0 -1 -1 0 0 0 -1 0 0 -1 0 0 0 -1 -1 0 0 -5 -1 0 0 -1 -5 0 0 1 -1 0 0 5 6 0 0 1 1 0 0 1 1 0 0 0 0 0 0 1 1 0 0 7 -1 0 0 1 0 0 0 1 -1 0 0 0 -1 0 0 1 -26 0 0 -1 -1 0 0 0 -1 0 0 -1 -1 0 0 -1 -1 0 0 -1 0 0 0 0 -1 0 0 -1 -1 0 0 -1 0 0 0 0 -1 0 0 -1 -1 0 0 -1 0 0 0 -1 -1 0 0 0 -1 0 0 -1 -1 0 0 -1 0 0 0 -9 -1 0 0 -1 -10 0 0 1z"/>
   <polygon class="fil1" points="35,22 35,22 35,23 46,23 46,21 47,21 47,11 46,11 46,11 35,11 "/>
   <polygon class="fil2" points="5,64 10,64 10,64 11,64 11,65 11,65 11,66 12,66 12,74 19,74 19,73 20,73 20,66 19,66 19,65 12,65 12,64 11,64 11,64 11,64 11,63 10,63 10,59 5,59 "/>
   <polygon class="fil3" points="35,85 43,85 43,84 44,84 44,77 43,77 43,77 35,77 "/>
   <polygon class="fil4" points="20,36 27,36 27,29 20,29 "/>
   <polygon class="fil5" points="40,37 41,37 41,38 47,38 47,30 40,30 "/>
   <polygon class="fil5" points="64,33 70,33 70,27 64,27 "/>
   <polygon class="fil6" points="47,6 52,6 52,1 47,1 "/>
   <polygon class="fil7" points="3,35 8,35 8,30 3,30 "/>
   <polygon class="fil4" points="5,81 10,81 10,77 5,77 "/>
   <polygon class="fil8" points="26,4 30,4 30,0 26,0 "/>
   <polygon class="fil5" points="49,43 53,43 53,39 52,39 52,38 49,38 "/>
   <polygon class="fil1" points="1,21 4,21 4,16 1,16 "/>
   <polygon class="fil9" points="67,7 67,4 63,4 63,7 "/>
   <polygon class="fil9" points="0,57 4,57 4,54 0,54 "/>
   <polygon class="fil4" points="75,13 75,16 79,16 79,13 "/>
   <polygon class="fil10" points="75,16 75,16 79,16 79,12 75,12 75,13 79,13 79,16 "/>
   <polygon class="fil11" points="67,7 67,7 67,3 63,3 63,4 67,4 "/>
  </g>
 </g>
</svg>
